<svg width="36" height="36" viewBox="0 0 36 36" fill="none" xmlns="http://www.w3.org/2000/svg">
<path d="M14.1692 0.168366C9.84 1.04851 6.47077 4.99324 5.80615 9.94536L5.69538 10.8149H3.21231C1.18154 10.8149 0.683077 10.8467 0.461538 10.974C0.138462 11.1648 0 11.4299 0 11.8647C0 12.2889 2.74154 31.0157 2.87077 31.4929C3.39692 33.3911 4.88308 35.1089 6.56308 35.7452L7.24615 35.9997H18C29.6215 35.9997 28.8923 36.0315 30.0369 35.4695C31.3754 34.812 32.6677 33.1472 33.1292 31.4929C33.2677 30.9839 36 12.2889 36 11.8541C36 11.4724 35.7969 11.1224 35.4738 10.9315C35.3446 10.8573 34.44 10.8149 32.7877 10.8149H30.3046L30.1938 9.94536C29.5292 4.95082 26.1415 1.0273 21.7477 0.157761C20.6308 -0.0543221 15.2585 -0.0543221 14.1692 0.168366ZM21.7385 2.321C25.1908 3.13752 27.8308 6.32936 28.3846 10.3589L28.4492 10.8149H7.55077L7.61538 10.3589C7.89231 8.32293 8.77846 6.33996 10.0338 4.91901C11.1785 3.62531 12.6554 2.70275 14.2154 2.321C15.3969 2.03469 20.5385 2.03469 21.7385 2.321ZM33.9692 12.9993C33.9692 13.1902 31.4677 30.4325 31.3938 30.6976C31.0431 32.108 30.0277 33.285 28.7723 33.741C28.2646 33.9213 27.6369 33.9319 18 33.9319C8.36308 33.9319 7.73538 33.9213 7.22769 33.741C5.97231 33.285 4.95692 32.108 4.60615 30.6976C4.53231 30.4325 2.03077 13.1902 2.03077 12.9993C2.03077 12.9675 9.21231 12.9357 18 12.9357C26.7877 12.9357 33.9692 12.9675 33.9692 12.9993Z" fill="#242424"/>
<path d="M8.64 17.7712C8.46462 17.9833 8.4 18.1635 8.4 18.4711C8.4 18.9589 9.64615 28.4071 9.78462 28.9691C9.90462 29.4675 10.1815 29.6902 10.6708 29.6902C11.1231 29.6902 11.4185 29.4569 11.5292 29.001C11.5846 28.7783 11.4 27.1664 10.8831 23.3278C10.1908 18.1423 10.1631 17.9727 9.92308 17.7394C9.57231 17.3894 8.96308 17.4 8.64 17.7712Z" fill="#242424"/>
<path d="M17.5477 17.6439C17.0769 17.9409 17.0862 17.909 17.0769 23.6777V29.0752L17.3446 29.3827C17.7231 29.8175 18.2769 29.8175 18.6554 29.3827L18.9231 29.0752V23.7095C18.9231 19.786 18.8954 18.2802 18.8123 18.0787C18.6092 17.5697 18 17.3576 17.5477 17.6439Z" fill="#242424"/>
<path d="M26.2062 17.6439C26.0769 17.7394 25.92 17.9409 25.8646 18.0999C25.7631 18.3968 24.4615 28.3647 24.4615 28.8101C24.4615 28.9373 24.5723 29.1812 24.7015 29.3615C24.8954 29.6372 25.0062 29.6902 25.3292 29.6902C25.8185 29.6902 26.0954 29.4675 26.2154 28.9691C26.3538 28.3965 27.6 19.0331 27.6 18.5453C27.6 17.75 26.8246 17.2516 26.2062 17.6439Z" fill="#242424"/>
</svg>
