<svg width="38" height="32" viewBox="0 0 38 32" fill="none" xmlns="http://www.w3.org/2000/svg">
<path d="M9.21789 0.0900326C4.81969 0.659704 1.18385 3.96882 0.186923 8.30838C-0.0476475 9.33881 -0.0644025 11.3997 0.153413 12.5223C0.664442 15.1193 2.13888 18.0431 4.35893 20.816C5.25532 21.947 8.36338 25.055 9.67027 26.1525C12.2087 28.2552 14.9816 30.1318 17.6624 31.5309C18.1651 31.7989 18.6594 32 18.8018 32C19.229 32 21.6669 30.6428 23.8283 29.2103C26.4421 27.4761 28.3857 25.8677 30.79 23.4633C31.7367 22.5166 32.8425 21.3187 33.2446 20.816C35.4563 18.0514 36.9391 15.1193 37.4501 12.5223C37.6679 11.3997 37.6512 9.33881 37.4166 8.30838C36.5872 4.71442 33.9064 1.73203 30.4633 0.584305C29.4161 0.240828 28.5364 0.0732765 27.3887 0.0230122C24.4817 -0.111027 21.6585 0.952917 19.539 2.99703L18.8018 3.70912L18.0562 2.98865C15.6686 0.726723 12.4767 -0.328842 9.21789 0.0900326ZM12.7867 2.12577C14.7387 2.62004 16.5817 3.85991 17.7546 5.45164C18.2489 6.12185 18.3494 6.18887 18.8018 6.18887C19.2542 6.18887 19.3547 6.12185 19.849 5.45164C21.0218 3.86829 22.8397 2.64518 24.8168 2.11739C25.5289 1.92471 25.797 1.89958 26.9699 1.89958C28.1427 1.89958 28.4108 1.92471 29.1229 2.11739C32.3901 2.98865 34.8615 5.51866 35.6071 8.75239C35.8081 9.63202 35.8165 11.2489 35.6071 12.2207C35.1714 14.3234 34.1326 16.4848 32.5158 18.6797C30.3125 21.6705 26.8442 24.8959 23.1413 27.4259C22.0606 28.1631 20.1589 29.3192 19.2877 29.78L18.8018 30.0313L18.3243 29.78C17.4781 29.3443 15.6016 28.1966 14.5544 27.4929C10.8347 24.9629 7.31619 21.6957 5.08777 18.6797C3.48767 16.51 2.45723 14.3737 1.99647 12.2709C1.77865 11.2573 1.79541 9.54825 2.02998 8.59321C2.89286 5.1333 5.79986 2.49438 9.38544 1.92471C10.2316 1.79067 11.8736 1.8912 12.7867 2.12577Z" fill="#242424"/>
</svg>
