<svg width="22" height="23" viewBox="0 0 22 23" fill="none" xmlns="http://www.w3.org/2000/svg">
<path d="M8.42226 0.980331C8.17297 1.00658 7.69561 1.09056 7.36145 1.16405C2.28546 2.29258 -0.90228 7.27388 0.227485 12.3077C0.413127 13.1318 0.614682 13.6881 1.02309 14.4912C1.46333 15.3678 1.93009 16.0187 2.66205 16.7641C4.1684 18.3125 5.96648 19.2206 8.15175 19.5355C8.98449 19.651 10.4325 19.6195 11.2493 19.4568C12.6867 19.1681 14.0923 18.5382 15.2274 17.6774L15.535 17.4412L18.1446 20.0184C19.5767 21.4357 20.8179 22.6219 20.8974 22.6534C21.1202 22.7322 21.3005 22.7164 21.5445 22.6009C21.9105 22.4277 22.0802 22.0026 21.9423 21.6194C21.9105 21.5406 20.7118 20.3124 19.2797 18.8952L16.6754 16.3126L16.9141 16.0082C17.7786 14.8954 18.4045 13.5412 18.7174 12.103C18.8182 11.62 18.8341 11.3943 18.8394 10.3183C18.8394 9.23175 18.8235 9.01129 18.7174 8.49164C18.1234 5.58895 16.3147 3.2374 13.6945 1.94614C13.2596 1.73094 12.6761 1.48423 12.4056 1.395C11.1326 0.990828 9.74297 0.843857 8.42226 0.980331ZM10.9894 2.69675C14.1666 3.37912 16.5163 5.75692 17.1474 8.92731C17.2747 9.57819 17.28 10.9482 17.1528 11.6305C16.5587 14.8114 14.018 17.3257 10.8038 17.9136C10.1143 18.0396 8.7299 18.0343 8.07219 17.9083C4.85263 17.2837 2.48702 14.9847 1.77627 11.7985C1.60654 11.0532 1.60654 9.52045 1.77627 8.75934C2.11573 7.22139 2.82117 5.93538 3.93502 4.83309C5.21861 3.56284 6.6401 2.87522 8.6026 2.58127C8.9898 2.52353 10.5227 2.59702 10.9894 2.69675Z" fill="#242424"/>
</svg>
