<svg width="24" height="24" fill="none" xmlns="http://www.w3.org/2000/svg"><path d="M11.148.027c-.994.066-2.476.393-3.422.756C4.178 2.157 1.416 5.192.44 8.792c-.798 2.939-.506 5.902.84 8.591.963 1.928 2.553 3.677 4.362 4.802a12.067 12.067 0 0013.75-.708c.28-.214.787-.678 1.132-1.024 1.815-1.82 2.958-4.087 3.369-6.693.143-.899.143-2.624 0-3.51-.423-2.642-1.554-4.88-3.4-6.724-2.481-2.481-5.82-3.73-9.345-3.499zm1.995 1.506c4.261.517 7.726 3.403 8.952 7.455.334 1.107.417 1.708.417 3.017 0 1.308-.084 1.91-.417 3.01-.375 1.25-.887 2.25-1.696 3.326-.387.518-.804.97-.846.916a5.843 5.843 0 01-.184-.5c-.673-1.927-2.149-3.516-4.09-4.402l-.392-.179.262-.208c.6-.476 1.244-1.452 1.505-2.29.203-.637.239-1.863.066-2.53-.351-1.416-1.256-2.552-2.536-3.189-.75-.368-1.315-.5-2.172-.5-.858 0-1.423.132-2.173.5-1.203.595-2.06 1.613-2.47 2.922-.167.535-.227 1.642-.12 2.255.102.583.37 1.255.709 1.773.274.422 1.042 1.237 1.16 1.237.036 0-.261.161-.648.351-1.81.899-3.173 2.422-3.816 4.26-.09.262-.172.488-.184.5-.042.054-.459-.398-.846-.916C1.5 15.51.916 11.987 2.03 8.661c1.268-3.778 4.631-6.557 8.602-7.099.714-.095 1.845-.107 2.512-.03zm-.47 5.438c1.791.38 3.011 2.178 2.648 3.903-.416 1.97-2.393 3.195-4.232 2.63-2.512-.768-3.262-3.862-1.375-5.647.84-.797 1.887-1.112 2.958-.886zm.035 8.193a6.378 6.378 0 013.833 1.833c.483.481 1.012 1.237 1.274 1.82.167.38.447 1.345.447 1.547 0 .274-1.703 1.22-2.935 1.624-1.256.417-1.899.518-3.345.512-1.12 0-1.328-.018-2-.16a10.846 10.846 0 01-2.613-.899c-.78-.387-1.608-.922-1.608-1.047 0-.268.274-1.166.5-1.642.346-.726.679-1.208 1.22-1.755.97-.982 2.394-1.678 3.757-1.833.643-.072.833-.072 1.47 0z" fill="#FFF"/></svg>