<svg width="45" height="45" viewBox="0 0 45 45" fill="none" xmlns="http://www.w3.org/2000/svg">
<rect x="1" y="1" width="43" height="43" rx="21.5" stroke="#D1D3DA" stroke-width="2"/>
<path d="M24.6643 31.712L15 22.496L24.6643 13.28C24.9277 13.0296 25.2811 12.8928 25.6468 12.8995C26.0125 12.9063 26.3604 13.0561 26.6142 13.316C26.8679 13.5759 27.0066 13.9246 26.9998 14.2855C26.9929 14.6463 26.8411 14.9896 26.5777 15.24L18.9646 22.496L26.5777 29.76C26.8411 30.0104 26.9929 30.3537 26.9998 30.7145C27.0066 31.0754 26.8679 31.4241 26.6142 31.684C26.3604 31.9439 26.0125 32.0937 25.6468 32.1005C25.2811 32.1072 24.9277 31.9704 24.6643 31.72V31.712Z" fill="#D1D3DA"/>
</svg>
